<svg width="40" height="39" viewBox="0 0 40 39" fill="none" xmlns="http://www.w3.org/2000/svg">
<path d="M13.3275 12.7685L13.8509 12.6911L14.0814 12.2149L19.2753 1.48436L19.2755 1.48378C19.3456 1.33881 19.4527 1.21953 19.5822 1.13735C19.7116 1.05529 19.8591 1.01282 20.0081 1.01282C20.1572 1.01282 20.3047 1.05529 20.434 1.13735C20.5636 1.21953 20.6707 1.33881 20.7407 1.48378L20.7409 1.48424L25.933 12.2148L26.1634 12.691L26.6867 12.7684L38.3015 14.4875L38.3018 14.4876C38.4418 14.5083 38.5758 14.5666 38.6897 14.6589C38.8038 14.7513 38.8939 14.8746 38.9488 15.0178C39.0037 15.161 39.0206 15.3175 38.9972 15.4706C38.975 15.6153 38.9179 15.7503 38.8328 15.8637L38.7338 15.9737L30.3359 24.3081L29.9682 24.673L30.0542 25.1839L32.0403 36.9819L32.0404 36.9823C32.0662 37.1355 32.0516 37.2927 31.9984 37.4374C31.9452 37.5819 31.8562 37.707 31.7427 37.8012C31.6294 37.8952 31.4954 37.9553 31.3551 37.9775C31.2223 37.9985 31.0862 37.9852 30.959 37.9382L30.8325 37.8789L20.4924 32.3223L20.0196 32.0682L19.5465 32.3218L9.1588 37.8913L9.15842 37.8915C9.03103 37.9599 8.88955 37.9918 8.74812 37.9855C8.60667 37.9791 8.46801 37.9345 8.34631 37.8545C8.22444 37.7743 8.12326 37.661 8.05525 37.5243C7.99059 37.3943 7.95871 37.2487 7.9634 37.1014L7.98019 36.9564L9.96028 25.1837L10.0462 24.673L9.67862 24.3081L1.26431 15.9558L1.26339 15.9549C1.15797 15.8505 1.07978 15.7176 1.03902 15.5687C0.998237 15.4198 0.996932 15.2621 1.03529 15.1124C1.07362 14.9628 1.14968 14.8284 1.2535 14.7221C1.3514 14.6219 1.47056 14.55 1.5992 14.511L1.74143 14.4815L13.3275 12.7685Z" stroke="#181818" stroke-width="2"/>
</svg>
